# xmcd CD database file
#
# Track frame offsets:
#	150
#	20936
#	41095
#	60822
#	81071
#	100620
#	122635
#	142428
#	163607
#	185678
#
# Disc length: 2687 seconds
#
# Revision: 0
# Processed by: cddbd v1.5.1PL0 Copyright (c) Steve Scherf et al.
# Submitted via: CDex 1.51
#
DISCID=870a7d0a
DTITLE=El Jeffrey - Viva El Merengue
DYEAR=2004
DGENRE=Merengue
TTITLE0=Mi hijo
TTITLE1=Niña
TTITLE2=En tu pelo
TTITLE3=Lagrimas de sangre
TTITLE4=Por tu boca
TTITLE5=Ve a mi mesa
TTITLE6=Esta locura
TTITLE7=Sin ti
TTITLE8=Deja de llorar
TTITLE9=Recordando a Jochi (Poutpourri)
EXTD=YEAR: 2004
EXTT0=
EXTT1=
EXTT2=
EXTT3=
EXTT4=
EXTT5=
EXTT6=
EXTT7=
EXTT8=
EXTT9=
PLAYORDER=
